<?xml version="1.0" encoding="UTF-8"?>
<svg xmlns="http://www.w3.org/2000/svg" width="1080" height="1080" viewBox="0 0 1080 1080" role="img" aria-label="Paste security post">
  <defs>
    <linearGradient id="pasteGrad" x1="0" y1="0" x2="1" y2="1">
      <stop offset="0" stop-color="#4ade80"/>
      <stop offset="0.62" stop-color="#22d3ee"/>
      <stop offset="1" stop-color="#6aa9ff"/>
    </linearGradient>
    <linearGradient id="panelGrad" x1="0" y1="0" x2="0" y2="1">
      <stop offset="0" stop-color="#151b22"/>
      <stop offset="1" stop-color="#080b0f"/>
    </linearGradient>
    <linearGradient id="darkGlass" x1="0" y1="0" x2="1" y2="1">
      <stop offset="0" stop-color="#17212a" stop-opacity="0.86"/>
      <stop offset="1" stop-color="#080b0f" stop-opacity="0.62"/>
    </linearGradient>
    <radialGradient id="mintGlow" cx="0.22" cy="0.18" r="0.72">
      <stop offset="0" stop-color="#4ade80" stop-opacity="0.32"/>
      <stop offset="0.44" stop-color="#22d3ee" stop-opacity="0.13"/>
      <stop offset="1" stop-color="#07090c" stop-opacity="0"/>
    </radialGradient>
    <radialGradient id="violetGlow" cx="0.9" cy="0.04" r="0.62">
      <stop offset="0" stop-color="#8b7bff" stop-opacity="0.18"/>
      <stop offset="1" stop-color="#07090c" stop-opacity="0"/>
    </radialGradient>
    <pattern id="grid" width="42" height="42" patternUnits="userSpaceOnUse">
      <path d="M42 0H0V42" fill="none" stroke="#ffffff" stroke-opacity="0.055" stroke-width="1"/>
    </pattern>
    <filter id="blurGlow" x="-60%" y="-60%" width="220%" height="220%">
      <feGaussianBlur stdDeviation="22"/>
    </filter>
    <filter id="shadow" x="-20%" y="-20%" width="140%" height="150%">
      <feDropShadow dx="0" dy="24" stdDeviation="26" flood-color="#000000" flood-opacity="0.45"/>
    </filter>
    <clipPath id="roundClip">
      <rect width="1080" height="1080" rx="0"/>
    </clipPath>
      <linearGradient id="leftFade" x1="0" y1="0" x2="1" y2="0">
      <stop offset="0" stop-color="#07090c" stop-opacity="0.72"/>
      <stop offset="0.42" stop-color="#07090c" stop-opacity="0.38"/>
      <stop offset="1" stop-color="#07090c" stop-opacity="0.05"/>
    </linearGradient>
  </defs>
  <rect width="1080" height="1080" fill="#07090c"/>
  
    <g clip-path="url(#roundClip)">
    <image href="../source/campaign-backdrop.png" x="0" y="0" width="1080" height="1080" preserveAspectRatio="xMidYMid slice" opacity="0.72"/>
    <rect width="1080" height="1080" fill="#07090c" opacity="0.5"/>
    <rect width="1080" height="1080" fill="url(#mintGlow)"/>
    <rect width="1080" height="1080" fill="url(#violetGlow)"/>
    <rect width="1080" height="1080" fill="url(#grid)" opacity="0.52"/>
    <circle cx="194.4" cy="237.6" r="302.40000000000003" fill="#4ade80" opacity="0.13" filter="url(#blurGlow)"/>
    <circle cx="928.8" cy="172.8" r="216" fill="#22d3ee" opacity="0.12" filter="url(#blurGlow)"/>
    <rect width="1080" height="1080" fill="url(#leftFade)"/>
  </g>
    <g>
    <g transform="translate(88 92) scale(1.8125)" opacity="1">
    <rect x="6" y="4.5" width="20" height="23" rx="4.5" fill="none" stroke="url(#pasteGrad)" stroke-width="2.4"/>
    <rect x="11.5" y="2.6" width="9" height="5.4" rx="2.4" fill="none" stroke="url(#pasteGrad)" stroke-width="2.4"/>
    <circle cx="16" cy="18.2" r="3.1" fill="none" stroke="url(#pasteGrad)" stroke-width="2.2"/>
    <path d="M16 21.3v3" stroke="url(#pasteGrad)" stroke-width="2.2" stroke-linecap="round"/>
  </g>
    <text x="165" y="146" fill="#e9eef3" font-family="Inter, -apple-system, BlinkMacSystemFont, 'Segoe UI', Arial, sans-serif" font-size="58" font-weight="760">Paste</text>
    <text x="168" y="174" fill="#6b7682" font-family="Inter, -apple-system, BlinkMacSystemFont, 'Segoe UI', Arial, sans-serif" font-size="18" font-weight="600">Private clipboard / encrypted on-device</text>
  </g>
    <text x="88" y="408" fill="#e9eef3" opacity="1" font-family="Inter, -apple-system, BlinkMacSystemFont, 'Segoe UI', Arial, sans-serif" font-size="82" font-weight="810" text-anchor="start">
    <tspan x="88" dy="0">No account.</tspan>
    <tspan x="88" dy="88">No cloud.</tspan>
  </text>
    <text x="88" y="650" fill="#9aa6b2" opacity="1" font-family="Inter, -apple-system, BlinkMacSystemFont, 'Segoe UI', Arial, sans-serif" font-size="30" font-weight="540" text-anchor="start">
    <tspan x="88" dy="0">Encrypted before sync.</tspan>
    <tspan x="88" dy="39">Verifier included.</tspan>
  </text>
    <g>
    <rect x="88" y="770" width="286" height="56" rx="28" fill="#ffffff" fill-opacity="0.035" stroke="#ffffff" stroke-opacity="0.12"/>
    <circle cx="109" cy="798" r="4.6" fill="#4ade80"/>
    <text x="126" y="805.92" fill="#9aa6b2" font-family="Inter, -apple-system, BlinkMacSystemFont, 'Segoe UI', Arial, sans-serif" font-size="22" font-weight="600">Open verifier included</text>
  </g>
    <g transform="translate(560 204) scale(1.15)">
        <rect x="0" y="0" width="328" height="424" rx="28" fill="url(#darkGlass)" stroke="#ffffff" stroke-opacity="0.12" filter="url(#shadow)"/>
        <g opacity="1">
    <rect x="42" y="62" width="244" height="50" rx="16.666666666666668" fill="#15202a" stroke="#22d3ee" stroke-opacity="0.22"/>
    <rect x="58" y="80" width="68.32000000000001" height="3" rx="1.5" fill="#22d3ee" opacity="0.56"/>
    <rect x="58" y="91" width="122" height="3" rx="1.5" fill="#ffffff" opacity="0.16"/>
    <circle cx="265" cy="87" r="9.5" fill="#4ade80" opacity="0.82"/>
  </g>
        <g opacity="0.76">
    <rect x="42" y="140" width="244" height="50" rx="16.666666666666668" fill="#15202a" stroke="#22d3ee" stroke-opacity="0.22"/>
    <rect x="58" y="158" width="68.32000000000001" height="3" rx="1.5" fill="#22d3ee" opacity="0.56"/>
    <rect x="58" y="169" width="122" height="3" rx="1.5" fill="#ffffff" opacity="0.16"/>
    <circle cx="265" cy="165" r="9.5" fill="#4ade80" opacity="0.82"/>
  </g>
        <g opacity="0.58">
    <rect x="42" y="218" width="244" height="50" rx="16.666666666666668" fill="#15202a" stroke="#22d3ee" stroke-opacity="0.22"/>
    <rect x="58" y="236" width="68.32000000000001" height="3" rx="1.5" fill="#22d3ee" opacity="0.56"/>
    <rect x="58" y="247" width="122" height="3" rx="1.5" fill="#ffffff" opacity="0.16"/>
    <circle cx="265" cy="243" r="9.5" fill="#4ade80" opacity="0.82"/>
  </g>
        <text x="42" y="338" fill="#4ade80" font-family="ui-monospace, SFMono-Regular, Menlo, Consolas, monospace" font-size="22" font-weight="700">verifier: pass</text>
        <text x="42" y="374" fill="#6b7682" font-family="ui-monospace, SFMono-Regular, Menlo, Consolas, monospace" font-size="18">plaintext: 0 bytes</text>
      </g>
  
</svg>
