<?xml version="1.0" encoding="UTF-8"?>
<svg xmlns="http://www.w3.org/2000/svg" width="1024" height="1024" viewBox="0 0 1024 1024" role="img" aria-label="Paste social icon">
  <defs>
    <linearGradient id="pasteGrad" x1="0" y1="0" x2="1" y2="1">
      <stop offset="0" stop-color="#4ade80"/>
      <stop offset="0.62" stop-color="#22d3ee"/>
      <stop offset="1" stop-color="#6aa9ff"/>
    </linearGradient>
    <linearGradient id="panelGrad" x1="0" y1="0" x2="0" y2="1">
      <stop offset="0" stop-color="#151b22"/>
      <stop offset="1" stop-color="#080b0f"/>
    </linearGradient>
    <linearGradient id="darkGlass" x1="0" y1="0" x2="1" y2="1">
      <stop offset="0" stop-color="#17212a" stop-opacity="0.86"/>
      <stop offset="1" stop-color="#080b0f" stop-opacity="0.62"/>
    </linearGradient>
    <radialGradient id="mintGlow" cx="0.22" cy="0.18" r="0.72">
      <stop offset="0" stop-color="#4ade80" stop-opacity="0.32"/>
      <stop offset="0.44" stop-color="#22d3ee" stop-opacity="0.13"/>
      <stop offset="1" stop-color="#07090c" stop-opacity="0"/>
    </radialGradient>
    <radialGradient id="violetGlow" cx="0.9" cy="0.04" r="0.62">
      <stop offset="0" stop-color="#8b7bff" stop-opacity="0.18"/>
      <stop offset="1" stop-color="#07090c" stop-opacity="0"/>
    </radialGradient>
    <pattern id="grid" width="42" height="42" patternUnits="userSpaceOnUse">
      <path d="M42 0H0V42" fill="none" stroke="#ffffff" stroke-opacity="0.055" stroke-width="1"/>
    </pattern>
    <filter id="blurGlow" x="-60%" y="-60%" width="220%" height="220%">
      <feGaussianBlur stdDeviation="22"/>
    </filter>
    <filter id="shadow" x="-20%" y="-20%" width="140%" height="150%">
      <feDropShadow dx="0" dy="24" stdDeviation="26" flood-color="#000000" flood-opacity="0.45"/>
    </filter>
    <clipPath id="roundClip">
      <rect width="1024" height="1024" rx="0"/>
    </clipPath>
  </defs>
  <rect width="1024" height="1024" fill="#07090c"/>
  
    <rect width="1024" height="1024" rx="224" fill="#07090c"/>
    <rect x="64" y="64" width="896" height="896" rx="198" fill="url(#darkGlass)" stroke="#ffffff" stroke-opacity="0.1" stroke-width="4"/>
    <circle cx="512" cy="512" r="410" fill="url(#mintGlow)"/>
    <g transform="translate(248 216) scale(16.5)" opacity="1">
    <rect x="6" y="4.5" width="20" height="23" rx="4.5" fill="none" stroke="url(#pasteGrad)" stroke-width="2.4"/>
    <rect x="11.5" y="2.6" width="9" height="5.4" rx="2.4" fill="none" stroke="url(#pasteGrad)" stroke-width="2.4"/>
    <circle cx="16" cy="18.2" r="3.1" fill="none" stroke="url(#pasteGrad)" stroke-width="2.2"/>
    <path d="M16 21.3v3" stroke="url(#pasteGrad)" stroke-width="2.2" stroke-linecap="round"/>
  </g>
  
</svg>
