<?xml version="1.0" encoding="UTF-8"?>
<svg xmlns="http://www.w3.org/2000/svg" width="1080" height="1920" viewBox="0 0 1080 1920" role="img" aria-label="Paste story">
  <defs>
    <linearGradient id="pasteGrad" x1="0" y1="0" x2="1" y2="1">
      <stop offset="0" stop-color="#4ade80"/>
      <stop offset="0.62" stop-color="#22d3ee"/>
      <stop offset="1" stop-color="#6aa9ff"/>
    </linearGradient>
    <linearGradient id="panelGrad" x1="0" y1="0" x2="0" y2="1">
      <stop offset="0" stop-color="#151b22"/>
      <stop offset="1" stop-color="#080b0f"/>
    </linearGradient>
    <linearGradient id="darkGlass" x1="0" y1="0" x2="1" y2="1">
      <stop offset="0" stop-color="#17212a" stop-opacity="0.86"/>
      <stop offset="1" stop-color="#080b0f" stop-opacity="0.62"/>
    </linearGradient>
    <radialGradient id="mintGlow" cx="0.22" cy="0.18" r="0.72">
      <stop offset="0" stop-color="#4ade80" stop-opacity="0.32"/>
      <stop offset="0.44" stop-color="#22d3ee" stop-opacity="0.13"/>
      <stop offset="1" stop-color="#07090c" stop-opacity="0"/>
    </radialGradient>
    <radialGradient id="violetGlow" cx="0.9" cy="0.04" r="0.62">
      <stop offset="0" stop-color="#8b7bff" stop-opacity="0.18"/>
      <stop offset="1" stop-color="#07090c" stop-opacity="0"/>
    </radialGradient>
    <pattern id="grid" width="42" height="42" patternUnits="userSpaceOnUse">
      <path d="M42 0H0V42" fill="none" stroke="#ffffff" stroke-opacity="0.055" stroke-width="1"/>
    </pattern>
    <filter id="blurGlow" x="-60%" y="-60%" width="220%" height="220%">
      <feGaussianBlur stdDeviation="22"/>
    </filter>
    <filter id="shadow" x="-20%" y="-20%" width="140%" height="150%">
      <feDropShadow dx="0" dy="24" stdDeviation="26" flood-color="#000000" flood-opacity="0.45"/>
    </filter>
    <clipPath id="roundClip">
      <rect width="1080" height="1920" rx="0"/>
    </clipPath>
      <linearGradient id="leftFade" x1="0" y1="0" x2="1" y2="0">
      <stop offset="0" stop-color="#07090c" stop-opacity="0.72"/>
      <stop offset="0.42" stop-color="#07090c" stop-opacity="0.38"/>
      <stop offset="1" stop-color="#07090c" stop-opacity="0.05"/>
    </linearGradient>
  </defs>
  <rect width="1080" height="1920" fill="#07090c"/>
  
    <g clip-path="url(#roundClip)">
    <image href="../source/campaign-backdrop.png" x="0" y="0" width="1080" height="1920" preserveAspectRatio="xMidYMid slice" opacity="0.72"/>
    <rect width="1080" height="1920" fill="#07090c" opacity="0.55"/>
    <rect width="1080" height="1920" fill="url(#mintGlow)"/>
    <rect width="1080" height="1920" fill="url(#violetGlow)"/>
    <rect width="1080" height="1920" fill="url(#grid)" opacity="0.52"/>
    <circle cx="194.4" cy="422.4" r="302.40000000000003" fill="#4ade80" opacity="0.13" filter="url(#blurGlow)"/>
    <circle cx="928.8" cy="307.2" r="216" fill="#22d3ee" opacity="0.12" filter="url(#blurGlow)"/>
    <rect width="1080" height="1920" fill="url(#leftFade)"/>
  </g>
    <g>
    <g transform="translate(92 152) scale(2.125)" opacity="1">
    <rect x="6" y="4.5" width="20" height="23" rx="4.5" fill="none" stroke="url(#pasteGrad)" stroke-width="2.4"/>
    <rect x="11.5" y="2.6" width="9" height="5.4" rx="2.4" fill="none" stroke="url(#pasteGrad)" stroke-width="2.4"/>
    <circle cx="16" cy="18.2" r="3.1" fill="none" stroke="url(#pasteGrad)" stroke-width="2.2"/>
    <path d="M16 21.3v3" stroke="url(#pasteGrad)" stroke-width="2.2" stroke-linecap="round"/>
  </g>
    <text x="182" y="216" fill="#e9eef3" font-family="Inter, -apple-system, BlinkMacSystemFont, 'Segoe UI', Arial, sans-serif" font-size="68" font-weight="760">Paste</text>
    <text x="185" y="247" fill="#6b7682" font-family="Inter, -apple-system, BlinkMacSystemFont, 'Segoe UI', Arial, sans-serif" font-size="21" font-weight="600">Private clipboard / encrypted on-device</text>
  </g>
    <text x="92" y="640" fill="#e9eef3" opacity="1" font-family="Inter, -apple-system, BlinkMacSystemFont, 'Segoe UI', Arial, sans-serif" font-size="112" font-weight="820" text-anchor="start">
    <tspan x="92" dy="0">Copy here.</tspan>
    <tspan x="92" dy="124">Paste there.</tspan>
  </text>
    <text x="92" y="940" fill="#9aa6b2" opacity="1" font-family="Inter, -apple-system, BlinkMacSystemFont, 'Segoe UI', Arial, sans-serif" font-size="39" font-weight="540" text-anchor="start">
    <tspan x="92" dy="0">One private notepad across every device you own.</tspan>
  </text>
    <g transform="translate(164 1080) scale(1.5)" filter="url(#shadow)">
    <rect x="160" y="12" width="310" height="210" rx="22" fill="#05070a" stroke="#ffffff" stroke-opacity="0.18" stroke-width="2"/>
    <rect x="181" y="38" width="268" height="144" rx="14" fill="#0b1016" stroke="#22d3ee" stroke-opacity="0.25"/>
    <g opacity="1">
    <rect x="205" y="62" width="196" height="29" rx="9.666666666666666" fill="#15202a" stroke="#22d3ee" stroke-opacity="0.22"/>
    <rect x="221" y="72.44" width="54.88" height="3" rx="1.5" fill="#22d3ee" opacity="0.56"/>
    <rect x="221" y="78.82" width="98" height="3" rx="1.5" fill="#ffffff" opacity="0.16"/>
    <circle cx="380" cy="76.5" r="5.51" fill="#4ade80" opacity="0.82"/>
  </g>
    <g opacity="0.72">
    <rect x="205" y="104" width="196" height="29" rx="9.666666666666666" fill="#15202a" stroke="#22d3ee" stroke-opacity="0.22"/>
    <rect x="221" y="114.44" width="54.88" height="3" rx="1.5" fill="#22d3ee" opacity="0.56"/>
    <rect x="221" y="120.82" width="98" height="3" rx="1.5" fill="#ffffff" opacity="0.16"/>
    <circle cx="380" cy="118.5" r="5.51" fill="#4ade80" opacity="0.82"/>
  </g>
    <g opacity="0.55">
    <rect x="205" y="146" width="196" height="29" rx="9.666666666666666" fill="#15202a" stroke="#22d3ee" stroke-opacity="0.22"/>
    <rect x="221" y="156.44" width="54.88" height="3" rx="1.5" fill="#22d3ee" opacity="0.56"/>
    <rect x="221" y="162.82" width="98" height="3" rx="1.5" fill="#ffffff" opacity="0.16"/>
    <circle cx="380" cy="160.5" r="5.51" fill="#4ade80" opacity="0.82"/>
  </g>
    <rect x="36" y="52" width="130" height="218" rx="24" fill="#05070a" stroke="#ffffff" stroke-opacity="0.18" stroke-width="2"/>
    <rect x="48" y="80" width="106" height="160" rx="14" fill="#0b1016" stroke="#4ade80" stroke-opacity="0.22"/>
    <g opacity="1">
    <rect x="62" y="104" width="76" height="24" rx="8" fill="#15202a" stroke="#22d3ee" stroke-opacity="0.22"/>
    <rect x="78" y="112.64" width="21.28" height="3" rx="1.5" fill="#22d3ee" opacity="0.56"/>
    <rect x="78" y="117.92" width="38" height="3" rx="1.5" fill="#ffffff" opacity="0.16"/>
    <circle cx="117" cy="116" r="4.5600000000000005" fill="#4ade80" opacity="0.82"/>
  </g>
    <g opacity="0.75">
    <rect x="62" y="142" width="76" height="24" rx="8" fill="#15202a" stroke="#22d3ee" stroke-opacity="0.22"/>
    <rect x="78" y="150.64" width="21.28" height="3" rx="1.5" fill="#22d3ee" opacity="0.56"/>
    <rect x="78" y="155.92" width="38" height="3" rx="1.5" fill="#ffffff" opacity="0.16"/>
    <circle cx="117" cy="154" r="4.5600000000000005" fill="#4ade80" opacity="0.82"/>
  </g>
    <g opacity="0.56">
    <rect x="62" y="180" width="76" height="24" rx="8" fill="#15202a" stroke="#22d3ee" stroke-opacity="0.22"/>
    <rect x="78" y="188.64" width="21.28" height="3" rx="1.5" fill="#22d3ee" opacity="0.56"/>
    <rect x="78" y="193.92" width="38" height="3" rx="1.5" fill="#ffffff" opacity="0.16"/>
    <circle cx="117" cy="192" r="4.5600000000000005" fill="#4ade80" opacity="0.82"/>
  </g>
    <path d="M138 64C226 -16 328 -18 420 52" fill="none" stroke="#22d3ee" stroke-opacity="0.72" stroke-width="2"/>
    <path d="M145 84C220 32 315 34 402 88" fill="none" stroke="#4ade80" stroke-opacity="0.55" stroke-width="2"/>
    <circle cx="235" cy="18" r="6" fill="#22d3ee"/>
    <circle cx="320" cy="31" r="5" fill="#4ade80"/>
  </g>
    <g>
    <rect x="92" y="1620" width="368" height="64" rx="32" fill="#ffffff" fill-opacity="0.035" stroke="#ffffff" stroke-opacity="0.12"/>
    <circle cx="113" cy="1652" r="4.6" fill="#4ade80"/>
    <text x="130" y="1660.64" fill="#9aa6b2" font-family="Inter, -apple-system, BlinkMacSystemFont, 'Segoe UI', Arial, sans-serif" font-size="24" font-weight="600">Encrypted before sync</text>
  </g>
    <g>
    <rect x="486" y="1620" width="218" height="64" rx="32" fill="#ffffff" fill-opacity="0.035" stroke="#ffffff" stroke-opacity="0.12"/>
    <circle cx="507" cy="1652" r="4.6" fill="#4ade80"/>
    <text x="524" y="1660.64" fill="#9aa6b2" font-family="Inter, -apple-system, BlinkMacSystemFont, 'Segoe UI', Arial, sans-serif" font-size="24" font-weight="600">No cloud</text>
  </g>
  
</svg>
